<svg xmlns="http://www.w3.org/2000/svg" viewBox="0 0 200 80" width="200" height="80">
  <circle cx="40" cy="40" r="30" fill="#0d5c3a" />
  <path d="M40 22c-5.5 0-10 4.5-10 10s4.5 10 10 10 10-4.5 10-10-4.5-10-10-10zm-3 8a1.5 1.5 0 11-3 0 1.5 1.5 0 013 0zm9 0a1.5 1.5 0 11-3 0 1.5 1.5 0 013 0zm-6 8c-3.3 0-6-2.7-6-6h12c0 3.3-2.7 6-6 6z" fill="#ffffff" />
  <path d="M25 40c-2 0-3 2-3 4s1 3 3 3 3-2 3-4-1-3-3-3zm30 0c-2 0-3 2-3 4s1 3 3 3 3-2 3-4-1-3-3-3z" fill="#ffffff" />
  <text x="82" y="38" font-family="system-ui, sans-serif" font-size="13" font-weight="900" fill="#0d5c3a" letter-spacing="0.5">RAINFOREST</text>
  <text x="82" y="53" font-family="system-ui, sans-serif" font-size="12" font-weight="900" fill="#0d5c3a" letter-spacing="0.5">ALLIANCE</text>
</svg>